<svg width="64" height="64" viewBox="0 0 64 64" fill="none" xmlns="http://www.w3.org/2000/svg">
<path d="M55.3164 39.4121C53.6193 44.5537 50.2989 49.0053 45.8544 52.0976C41.41 55.19 36.0817 56.7558 30.6709 56.5598C25.26 56.3637 20.0591 54.4163 15.8501 51.0104C11.6411 47.6045 8.65157 42.9242 7.33107 37.6733L16.4016 35.3923C17.2281 38.6787 19.0992 41.608 21.7335 43.7397C24.3678 45.8714 27.623 47.0902 31.0096 47.2129C34.3961 47.3356 37.731 46.3556 40.5127 44.4202C43.2944 42.4847 45.3725 39.6985 46.4347 36.4805L55.3164 39.4121Z" fill="#0007A6"/>
<path d="M52.7624 31.1977L57.8123 46.2911L39.7198 40.3193L52.7624 31.1977Z" fill="#00E0EE"/>
<path d="M7.83595 23.7402C9.53302 18.5987 12.8534 14.147 17.2979 11.0547C21.7424 7.96236 27.0706 6.3965 32.4815 6.59256C37.8923 6.78863 43.0933 8.73602 47.3023 12.1419C51.5112 15.5478 54.5008 20.2281 55.8213 25.479L46.7507 27.7601C45.9242 24.4736 44.0531 21.5443 41.4188 19.4126C38.7845 17.281 35.5293 16.0621 32.1428 15.9394C28.7562 15.8167 25.4214 16.7967 22.6397 18.7322C19.858 20.6676 17.7798 23.4538 16.7176 26.6718L7.83595 23.7402Z" fill="#0007A6"/>
<path d="M10.3899 31.9547L5.34002 16.8613L23.4325 22.8331L10.3899 31.9547Z" fill="#00E0EE"/>
</svg>
